<?xml version="1.0" encoding="UTF-8"?>
<svg version="1.1" viewBox="0 0 1152 1156" width="1152" height="1156" xmlns="http://www.w3.org/2000/svg">
<path transform="translate(588,343)" d="m0 0h18l10 1 5 3 6 2 11 8-1 7-4 7v4l25 1 4 3 6 2 2 2 5 2 10 8v2l4 2 6 5 7 8 7 9 3 2 3 6 4 6 3 7 2 2 2 8 3 9 6 4 5 3 8 7 6 11 2 3 4 18-1 13-2 5-1 7-3 3-3 7-7 8-6 5h-2v2l-9 4-10 2-7 1-105-1v2l-5 5h-2l-2 6-9 10-5 4-9 5-5 3-9 2-7 2h-18l-9-3-9-2-8-5-6-4-5-5-4-5-1-3-3-3-4-14v-44l2-9 3-8h2v-9l-3-2-7 1-4 4-4 12-1 58-1 1h-19l-7-3-7-1-3-3-6-2-8-6-5-3-8-8-4-5-1-4h-2l-5-8-2-5-2-3-2-10-2-6v-19l3-8 2-8 8-12 4-5 1-5 2-18 3-5 2-5 5-8 7-8 5-4 5-3 8-4 1-1 10-2 4-2 22-1 3-3 3-5 3-4h2l2-4h2l1-3 5-4 6-3 10-4 3-1h28l5 3 7 2v2l5 2 7 6 1 4h2l2 4 3 2 6 11 2 2v5l-1 1-16 1-4 3-7 3-7 7-3 7-1 2v16l3 6 1 6 4 4h6l3-4-1-6-2-10v-8l2-6 3-1 2-4 12-4h17l5 8 3 7 3 9 2 3v7l-2 2-10 2-2 2-6 2-7 4-4 4-2 5-2 2v17l3 4 3 5 5 4 7 4h24l6-3 7-1 4-3 5-2 2-2v-7l-7-1-8 2-3 2-12 2-3 1h-8l-9-4-4-7v-6l4-6 3-1 3-3 7-2 3-2 7-2 2-2 12-2 5-2 11-1 4-3 5-2 12-10 4-5v-6l-4-3-4 1-8 7-7 6-10 4h-13l-5-8-2-7-2-2-2-6-2-2-3-7-5-8-3-5-3-6-6-9-1-3-3-2-5-10-3-2-1-5 2-2zm-62 33-2 1v2l-7 1-2 3-5 3-10 11-3 7-1 1-3 14v13l2 7 1 9 3 5 3 7 3 4h8l3-3v-7l-3-4-2-6-2-4v-28l5-9 5-6 5-3 7-3 6-5 2-5-4-5zm-66 29-5 2-8 2-11 8-4 7-3 9v8l5 4 6-1 4-5 1-9 4-5 4-2v-2l19-1 4-4v-7l-5-4zm221 31-2 4-3 1v6l10 9 2 5-1 16-3 4-2 5-2 3 1 5 3 2 9 2 5 2 5 1 7 8 1 2v15l-3 5 1 5 4 3 4-1 7-7v-25l-3-5-2-5-8-7-7-2v-2l-4-1 2-10 2-7-2-9-3-9-4-5-8-7-1-1zm-232 23-5 3-5 5-8 2-7 4-7 8-1 1-1 14 1 8 3 4 2 4 6 5 5 5 5 3 4 3h6l4-5-2-5-5-5-10-9-5-9v-6l4-4 8-4 6-2 5-4 4-4 1-8-3-4zm93 20-4 2-2 6 3 5 3 7 3 6 4 6 5 1 5-6-1-5-3-9-2-2-2-6h-2l-2-4zm56 32-3 3v2h-2l-2 7-3 1-2 3-6 3-1 1h-35l-7 1-8 9-1 2v17l5 8h2l2 4 4 4h5l5-5-1-5-6-8-3-5 1-5 3-3h10l6 2h14l12-4 9-7 5-6v-2l3-1 4-7-1-7-3-2zm65 2-13 5-4 1-13 1-2 3v5l4 4h20l5-3 7-3 4-5-1-5-3-3z" fill="#E2293E"/>
<path transform="translate(588,343)" d="m0 0h18l10 1 5 3 6 2 11 8-1 7-4 7v4l25 1 4 3 6 2 2 2 5 2 10 8v2l4 2 6 5 7 8 7 9 3 2 3 6 4 6 3 7 2 2 2 8 3 9 6 4 5 3 8 7 6 11 2 3 4 18-1 13-2 5-1 7-3 3-3 7-7 8-6 5h-2v2l-9 4-10 2-7 1-53-1-2-23v-6l6-4 7-3 3-4v-4l-3-2v-2l-15 5h-2l-4-17-6-18 3-3v-7l-7-1-8 2-3 2-12 2-3 1h-8l-9-4-4-7v-6l4-6 3-1 3-3 7-2 3-2 7-2 2-2 12-2 5-2 11-1 4-3 5-2 12-10 4-5v-6l-4-3-4 1-8 7-7 6-10 4h-13l-5-8-2-7-2-2-2-6-2-2-3-7-5-8-3-5-3-6-6-9-1-3-3-2-5-10-3-2-1-5 2-2zm93 93-2 4-3 1v6l10 9 2 5-1 16-3 4-2 5-2 3 1 5 3 2 9 2 5 2 5 1 7 8 1 2v15l-3 5 1 5 4 3 4-1 7-7v-25l-3-5-2-5-8-7-7-2v-2l-4-1 2-10 2-7-2-9-3-9-4-5-8-7-1-1z" fill="#FEB704"/>
<path transform="translate(634,296)" d="m0 0h5l4 3 9 2 3 2 8 2 3 2 8 2 3 2 8 2 3 2 7 2 3 2 7 2 3 2 8 2 3 2 7 2 3 2 7 2 10 5 10 11 4 5 1 5h2l2 4 3 2 5 10 3 2 5 10 3 2 5 10 3 2 5 9 4 5v2h2l3 6 6 7 2 5 6 8 1 6-3 3-7-6v-2l-4-1v-2l-7-2-1-2-7-2-2-2-7-2-2-2-7-2-3-2-6-2-2-2h-6l-8 9-6 9-6 8h-4l-2-9v-2h-2l-3-7-2-2-1-6h-2l-4-6-6-8v-2l-3-1-6-7-7-6v-2l-5-2-7-6-4-2v-2l-7-2-2-2-6-2-3-2-18-2 1-6 3-3 2-5 3-5 5-8 2-1v-4h-2l-3-6-6-8-3-5-5-7-3-5-4-5z" fill="#040001"/>
<path transform="translate(545,675)" d="m0 0h16l11 1 7 4 3 4 1 17-2 1-9-4-9-3-8-2-9 1-3 2-6 2-8 8-2 6-2 4v21l4 10 8 8 8 4h18l6-3 6-1 3-3 5 2 1 9-1 4h-2l-2 5-8 4-12 2-3 1h-10l-6-2-8-1-4-3-5-3-11-11-4-7-4-11v-25l-3 1-2 9-2 3-2 6-2 3-2 7-2 3-2 7-2 3-2 7-2 3-2 8-2 4-2 7-2 3-2 6h-2l-2 5h-2l-1 3-3 1-2 3-13 1-2-2v-14l7-2 4-4 3-7 1-2v-8l-3-6-2-8-2-3-3-9-1-1-2-9-2-3-2-7-2-2-2-8-2-3v-10l1-1h15l4 4 3 8 3 10 2 3 2 8 2 4 1 6 3 1 2-6 2-9 3-5 2-8 2-3 2-8 5-5h13l4 2 4-2 2-7 4-5 4-4 12-6 3-2z" fill="#080102"/>
<path transform="translate(724,572)" d="m0 0 3 1-1 7-3 12-4 8-7 9-5 4h-2l-1 3-7 4-9 3-2 1-13 1h-36v6l8 16v2h2l1 6-1 1h-22l-6-7-5-9-2-2-1-6-3-1-1-6h-2l-4-6-7-10-3-2v-2l-6-2 2-4 12-12 8-11 2-1 109-1z" fill="#E2293F"/>
<path transform="translate(174,672)" d="m0 0 14 1 5 2 9 1 9 5 1 2v16l-1 1h-6l-4-3-9-3-2-1h-21l-3 3h-2l-2 4-1 4 5 6 10 3 5 2 10 1 6 3 7 2 7 5 2 5h2l2 8v13l-1 7-4 5-8 8-5 2-3 2-13 2h-11l-16-2-7-3-6-2-4-5 1-17 4-1 4 3 7 3 1 1 10 2 3 1h17l8-6 1-1v-7l-3-3-7-4-11-2-4-2-10-2-3-2-6-2-6-4-2-6h-2l-1-2-1-14 2-10 6-8 5-4 5-3 9-2 1-1z" fill="#FEB704"/>
<path transform="translate(424,670)" d="m0 0 4 1 1 2 2 81v14l-5 8h-9l-6-7h-2l-4 4h-2v2l-14 5-10-1-10-4v-2l-5-2-4-5-2-5-2-3-2-16v-7l2-14 3-4 2-5 6-5 2-3 8-4h22l6 4 3-1 1-27 4-4zm-37 46-7 5-4 5-1 16 1 9 3 1 2 4 4 4h15l8-8 1-5v-17l-2-7-9-7z" fill="#FDB604"/>
<path transform="translate(858,700)" d="m0 0h19l5 3 6 2 5 5v2l3 1 1 4h2l4 15v12l-5 4h-45l-1 3 1 4 4 4 9 3h15l5-2 8-2 4-2 2 1v14l-4 2-1 3-9 2-5 2h-19l-7-3-7-2-9-9v-2l-3-1-3-7-1-1v-29l3-5 2-5 12-12 7-3zm4 16-2 1v2l-5 2v2h-2l-2 5 1 4h31l1-5-1-2h-2l-2-5-6-4z" fill="#090102"/>
<path transform="translate(613,700)" d="m0 0h24l5 3 5 2 5 4 4 4 4 7 4 11v18l-5 11-4 7-6 5-5 3-10 4-3 1h-12l-6-3-7-2-6-4-7-8-3-7-2-3-1-16 1-12 5-9 7-8 5-4zm7 16-8 5-4 5-2 11 1 9 2 7 5 6 9 3 9-1 5-3 7-8v-21l-7-9-7-4z" fill="#090102"/>
<path transform="translate(277,700)" d="m0 0h18l1 1 1 52 5 6h13l5-6 3-6 1-46 2-1h15l2 1 1 3v67l-5 5h-10l-2-5-8 2-4 3-9 3h-9l-11-4-6-7-4-8v-59z" fill="#FEB704"/>
<path transform="translate(437,700)" d="m0 0h15l4 4 3 8 3 10 2 3 2 8 2 4 1 6 3 1 2-6 2-9 3-5 2-8 2-3 2-8 5-5h13l4 2 2-1-3 11-2 4-3 1-2 9-2 3-2 6-2 3-2 7-2 3-2 7-2 3-2 7-2 3-2 8-2 4-2 7-2 3-2 6h-2l-2 5h-2l-1 3-3 1-2 3-13 1-2-2v-14l7-2 4-4 3-7 1-2v-8l-3-6-2-8-2-3-3-9-1-1-2-9-2-3-2-7-2-2-2-8-2-3v-10z" fill="#FDB604"/>
<path transform="translate(706,700)" d="m0 0h17l9 5 4 4 3 7 1 1v58l-1 1-13 1-5-2-1-1-1-52-6-4h-9l-7 4-4 9v42l-1 3-5 1h-8l-3-1-1-2-1-68 3-5h14l2 5 4-1 7-2v-2z" fill="#0B0203"/>
<path transform="translate(787,700)" d="m0 0h16l9 5 4 4 4 7 1 11v47l-2 3h-14l-2-2-1-44-4-10-6-3h-6l-8 4-4 10v42l-3 3h-13l-2-1-1-16v-55l3-3 4-1h8l3 6 4-2z" fill="#0E0203"/>
<path transform="translate(240,680)" d="m0 0h8l3 2 1 3 1 14 11 1 3 3v12l-4 2h-10v39l3 3h10l2 3v8l-1 2h-2l-2 4-9 2-10-1-5-2-7-8-2-15v-30l-2-4-9-2-1-1v-14l10-2 1-1v-12l4-3z" fill="#FEB704"/>
<path transform="translate(940,700)" d="m0 0h17l11 5 1 3h2l1 2v10l-2 3h-5l-2-2-11-3h-6l-9 3-4 4-4 11v7l4 12 4 4 9 3h7l12-3h2l1-3 5 1 2 9-4 6-4 4-9 3-2 1h-18l-6-3-5-2-7-5-4-5-3-5-1-1-3-14v-7l3-15 9-12 8-7 7-2z" fill="#0B0203"/>
<path transform="translate(999,680)" d="m0 0 5 1 2 4v13l2 2 11 1 2 3v14l-2 2h-11v34l2 6 9 1 3 5v9l-5 4-3 1h-12l-2-1v-2l-7-2-3-6-2-3-1-45-10-2-1-3v-12l4-3 6-1v-6l-1-1v-5l3-4 7-2z" fill="#090102"/>
<path transform="translate(618,444)" d="m0 0h8l10 25v3l-8 2-3 2-12 2-3 1h-8l-9-4-4-7v-6l4-6 3-1 3-3 7-2 3-2 7-2z" fill="#E2293F"/>
<path transform="translate(818,456)" d="m0 0h8l5 5 1 5-1 2h-2v11l3 7 1 16-2 2h-14l-6-5 2-12 2-5 1-11-1-10z" fill="#0E0204"/>
</svg>
